<!DOCTYPE svg PUBLIC "-//W3C//DTD SVG 1.1//EN" "http://www.w3.org/Graphics/SVG/1.1/DTD/svg11.dtd">
<!-- Uploaded to: SVG Repo, www.svgrepo.com, Transformed by: SVG Repo Mixer Tools -->
<svg width="800px" height="800px" viewBox="-3.2 -3.2 38.40 38.40" xmlns="http://www.w3.org/2000/svg" fill="#000000">
<g id="SVGRepo_bgCarrier" stroke-width="0">
<rect x="-3.2" y="-3.2" width="38.40" height="38.40" rx="7.68" fill="#ebfaff" strokewidth="0"/>
</g>
<g id="SVGRepo_tracerCarrier" stroke-linecap="round" stroke-linejoin="round"/>
<g id="SVGRepo_iconCarrier">
<title/>
<path d="M20.85,18.91C20.8,15,21,8.68,13,2c0,0,1,12-10,16a25.36,25.36,0,0,0,13,4.6S20.89,22.6,20.85,18.91Z" style="fill: #0bf"/>
<path d="M1,23v5s12.25,3.69,21,1c7.76-2.39,9-11,9-11C21,23,18,23,1,23Z" style="fill: none;stroke: #000000;stroke-linecap: round;stroke-linejoin: round;stroke-width: 2px"/>
<path d="M20.85,18.91C21,15.18,21,8.68,13,2c0,0,1,12-10,16a25.36,25.36,0,0,0,13,4.6" style="fill: none;stroke: #000000;stroke-linecap: round;stroke-linejoin: round;stroke-width: 2px"/>
<polyline points="13 2 6 2 9 4.5 6 7 12 7" style="fill: none;stroke: #000000;stroke-linecap: round;stroke-linejoin: round;stroke-width: 2px"/>
</g>
</svg>